<svg width="118" height="25" viewBox="0 0 118 25" fill="none" xmlns="http://www.w3.org/2000/svg">
<path d="M16.7314 23.9451H0.274286V23.0949L2.85257 21.0651V4.44343L0 3.48343L0.548571 2.38629H16.4571L17.9383 1.89257V8.20114L17.1154 8.47543L13.8514 3.62057H6.28114V12.3154H10.5874L12.5897 8.80457H13.44V17.1429L12.3429 17.6914L10.6149 13.5497H6.28114V22.7109H13.7417L17.3897 17.3074L18.2126 17.5817V24.4389L16.7314 23.9451Z" fill="#131313"/>
<path d="M36.9587 10.2309L30.0193 23.9451H27.9347L23.6559 13.4949L21.105 12.0137V11.1634L25.7953 8.85943L26.8376 13.0011L30.1839 21.1749L34.0513 13.1383L30.4033 10.4777L30.9519 9.38057H36.9587V10.2309Z" fill="#131313"/>
<path d="M53.2399 23.9451H48.0285V21.5589L44.9291 24C44.5634 24.1463 44.1062 24.2194 43.5576 24.2194C41.9851 24.2194 40.8422 23.8263 40.1291 23.04C39.4342 22.2537 39.0868 21.312 39.0868 20.2149C39.0868 19.5566 39.3245 18.9074 39.7999 18.2674C40.2754 17.6274 40.9519 17.024 41.8296 16.4571H48.0285V14.7017C48.0285 13.5131 47.7085 12.672 47.0685 12.1783C46.4468 11.6846 45.5874 11.4377 44.4902 11.4377C43.3565 11.4377 41.9668 12.1234 40.3211 13.4949L39.4982 12.4526L43.4479 9.32571C44.1794 9.17943 45.0571 9.10629 46.0811 9.10629C47.7451 9.10629 49.0342 9.51771 49.9485 10.3406C50.8628 11.1451 51.3199 12.3246 51.3199 13.8789V21.888L53.7885 22.848L53.2399 23.9451ZM44.4354 21.888C45.5508 21.888 46.7485 21.376 48.0285 20.352V17.5817H43.1736C42.9359 17.8743 42.7622 18.1669 42.6525 18.4594C42.5611 18.752 42.5154 19.072 42.5154 19.4194C42.5154 20.096 42.6891 20.6811 43.0365 21.1749C43.3839 21.6503 43.8502 21.888 44.4354 21.888Z" fill="#131313"/>
<path d="M63.0894 23.9451H55.4368V23.0949L57.8779 21.1749V4.30629L55.4368 2.60571V1.75543L60.1271 0H61.1694V21.888L63.6379 22.848L63.0894 23.9451Z" fill="#131313"/>
<path d="M73.7629 23.9451H66.1104V23.0949L68.5515 21.1749V13.1657L66.1104 11.4651V10.6149L70.8006 8.85943H71.8429V21.888L74.3115 22.848L73.7629 23.9451ZM70.0875 0.630857C70.6361 0.630857 71.0841 0.832 71.4315 1.23428C71.7972 1.63657 71.9801 2.13943 71.9801 2.74286C71.9801 3.16343 71.8521 3.56571 71.5961 3.94971C71.3401 4.31543 71.0201 4.608 70.6361 4.82743C70.2521 5.04686 69.8772 5.15657 69.5115 5.15657C68.9629 5.15657 68.5058 4.95543 68.1401 4.55314C67.7926 4.15086 67.6189 3.648 67.6189 3.04457C67.6189 2.624 67.7469 2.23086 68.0029 1.86514C68.2589 1.48114 68.5789 1.17943 68.9629 0.959999C69.3469 0.740571 69.7218 0.630857 70.0875 0.630857Z" fill="#131313"/>
<path d="M93.3379 23.9451H88.1265V21.9703L85.5756 24C84.9905 24.1463 84.2865 24.2194 83.4636 24.2194C82.2568 24.2194 81.1688 23.9086 80.1996 23.2869C79.2488 22.6469 78.4991 21.7874 77.9505 20.7086C77.4202 19.6297 77.1551 18.4411 77.1551 17.1429C77.1551 15.7349 77.5848 14.4183 78.4442 13.1931C79.3036 11.9497 80.3734 10.9623 81.6534 10.2309C82.9516 9.48114 84.2042 9.10629 85.4111 9.10629C86.4168 9.10629 87.3311 9.38971 88.1539 9.95657V4.30629L85.7128 2.60571V1.75543L90.4031 0H91.4454V21.888L93.8865 22.848L93.3379 23.9451ZM84.8625 21.888C85.4111 21.888 85.9322 21.8149 86.4259 21.6686C86.9379 21.504 87.5048 21.2023 88.1265 20.7634V14.5097C88.0168 13.5954 87.5871 12.8549 86.8374 12.288C86.1059 11.7029 85.1002 11.4103 83.8202 11.4103C81.7539 11.4103 80.7208 12.8823 80.7208 15.8263C80.7208 17.5451 81.0774 18.9897 81.7905 20.16C82.5036 21.312 83.5276 21.888 84.8625 21.888Z" fill="#131313"/>
<path d="M117.148 23.9451H108.81V23.0949L110.977 21.4217L105.765 14.8389L100.06 21.2846L104.037 22.848L103.489 23.9451H95.1503V23.0949L98.1949 21.2297L104.915 13.7417L98.1949 5.15657L95.4246 3.48343L95.9732 2.38629H104.311V3.23657L102.145 4.90971L107.329 11.4377L112.567 5.07429L108.563 3.48343L109.111 2.38629H117.45V3.23657L114.625 4.96457L108.234 12.5623L114.954 21.1749L117.697 22.848L117.148 23.9451Z" fill="#131313"/>
</svg>
