<svg width="196" height="58" viewBox="0 0 196 58" fill="none" xmlns="http://www.w3.org/2000/svg">
<mask id="mask0_1_63" style="mask-type:alpha" maskUnits="userSpaceOnUse" x="0" y="0" width="58" height="58">
<rect width="57.7509" height="57.7509" fill="#D9D9D9"/>
</mask>
<g mask="url(#mask0_1_63)">
<path d="M28.8754 52.9383L7.21887 40.9069V16.844L28.8754 4.81256L50.532 16.844V40.9069L28.8754 52.9383ZM21.8972 22.2581C22.8196 21.2956 23.8824 20.5537 25.0855 20.0323C26.2887 19.511 27.552 19.2503 28.8754 19.2503C30.1989 19.2503 31.4622 19.511 32.6653 20.0323C33.8685 20.5537 34.9313 21.2956 35.8537 22.2581L43.0725 18.2276L28.8754 10.347L14.6784 18.2276L21.8972 22.2581ZM26.4692 46.0804V38.1998C24.3035 37.6383 22.5589 36.4953 21.2355 34.7708C19.912 33.0463 19.2503 31.0812 19.2503 28.8754C19.2503 28.4343 19.2704 28.0232 19.3105 27.6422C19.3506 27.2612 19.4308 26.8702 19.5511 26.4691L12.0314 22.2581V38.0795L26.4692 46.0804ZM28.8754 33.688C30.1989 33.688 31.3319 33.2168 32.2743 32.2743C33.2168 31.3318 33.688 30.1989 33.688 28.8754C33.688 27.552 33.2168 26.419 32.2743 25.4765C31.3319 24.5341 30.1989 24.0629 28.8754 24.0629C27.552 24.0629 26.419 24.5341 25.4766 25.4765C24.5341 26.419 24.0629 27.552 24.0629 28.8754C24.0629 30.1989 24.5341 31.3318 25.4766 32.2743C26.419 33.2168 27.552 33.688 28.8754 33.688ZM31.2817 46.0804L45.7195 38.0795V22.2581L38.1998 26.4691C38.3201 26.8702 38.4003 27.2612 38.4404 27.6422C38.4805 28.0232 38.5006 28.4343 38.5006 28.8754C38.5006 31.0812 37.8389 33.0463 36.5154 34.7708C35.192 36.4953 33.4474 37.6383 31.2817 38.1998V46.0804Z" fill="white"/>
</g>
<path d="M75.4846 38.3754V18.4274H88.9262V21.9046H79.7022V26.6579H88.2346V30.1352H79.7022V34.8982H88.9652V38.3754H75.4846ZM101.523 28.5378V31.83H92.4254V28.5378H101.523ZM119.007 23.4144L113.776 38.3754H109.101L103.87 23.4144H108.253L111.36 34.1189H111.516L114.614 23.4144H119.007ZM124.994 38.6579C124.04 38.6579 123.189 38.4923 122.442 38.1611C121.696 37.8235 121.105 37.3267 120.67 36.6709C120.241 36.0085 120.027 35.1839 120.027 34.1969C120.027 33.3657 120.179 32.6676 120.485 32.1027C120.79 31.5378 121.205 31.0832 121.731 30.7391C122.257 30.3949 122.855 30.1352 123.524 29.9598C124.199 29.7845 124.907 29.6611 125.647 29.5897C126.517 29.4988 127.218 29.4144 127.751 29.3365C128.283 29.2521 128.67 29.1287 128.91 28.9663C129.15 28.804 129.27 28.5637 129.27 28.2456V28.1871C129.27 27.5702 129.076 27.093 128.686 26.7553C128.303 26.4176 127.757 26.2488 127.05 26.2488C126.303 26.2488 125.709 26.4144 125.267 26.7456C124.826 27.0702 124.533 27.4793 124.39 27.9728L120.553 27.6611C120.748 26.7521 121.131 25.9663 121.702 25.304C122.274 24.6352 123.011 24.1222 123.913 23.765C124.822 23.4014 125.874 23.2196 127.069 23.2196C127.9 23.2196 128.696 23.317 129.455 23.5118C130.222 23.7066 130.9 24.0085 131.491 24.4176C132.089 24.8267 132.559 25.3527 132.903 25.9956C133.248 26.6319 133.42 27.3949 133.42 28.2845V38.3754H129.485V36.3008H129.368C129.127 36.7683 128.806 37.1806 128.403 37.5378C128.001 37.8884 127.517 38.1644 126.952 38.3657C126.387 38.5605 125.735 38.6579 124.994 38.6579ZM126.183 35.7943C126.793 35.7943 127.332 35.6741 127.8 35.4339C128.267 35.1871 128.634 34.8559 128.9 34.4404C129.166 34.0248 129.3 33.554 129.3 33.028V31.4404C129.17 31.5248 128.991 31.6027 128.764 31.6741C128.543 31.7391 128.293 31.8008 128.014 31.8592C127.735 31.9111 127.455 31.9598 127.176 32.0053C126.897 32.0443 126.644 32.08 126.416 32.1124C125.929 32.1839 125.504 32.2975 125.14 32.4533C124.777 32.6092 124.494 32.8202 124.293 33.0865C124.092 33.3462 123.991 33.6709 123.991 34.0605C123.991 34.6254 124.196 35.0572 124.605 35.3559C125.02 35.6482 125.546 35.7943 126.183 35.7943ZM140.788 18.4274V38.3754H136.639V18.4274H140.788ZM144.112 38.3754V23.4144H148.261V38.3754H144.112ZM146.196 21.4858C145.58 21.4858 145.05 21.2813 144.609 20.8722C144.174 20.4566 143.956 19.9598 143.956 19.3819C143.956 18.8105 144.174 18.3202 144.609 17.9111C145.05 17.4956 145.58 17.2878 146.196 17.2878C146.813 17.2878 147.339 17.4956 147.774 17.9111C148.216 18.3202 148.437 18.8105 148.437 19.3819C148.437 19.9598 148.216 20.4566 147.774 20.8722C147.339 21.2813 146.813 21.4858 146.196 21.4858ZM157.098 38.6189C155.962 38.6189 154.933 38.3267 154.011 37.7423C153.095 37.1514 152.368 36.2845 151.829 35.1417C151.296 33.9923 151.03 32.5832 151.03 30.9144C151.03 29.2001 151.306 27.7748 151.858 26.6384C152.41 25.4956 153.144 24.6417 154.059 24.0767C154.981 23.5053 155.991 23.2196 157.089 23.2196C157.926 23.2196 158.624 23.3624 159.183 23.6482C159.748 23.9274 160.202 24.278 160.546 24.7001C160.897 25.1157 161.163 25.5248 161.345 25.9274H161.472V18.4274H165.611V38.3754H161.52V35.9793H161.345C161.15 36.3949 160.874 36.8072 160.517 37.2163C160.166 37.6189 159.709 37.9533 159.144 38.2196C158.585 38.4858 157.903 38.6189 157.098 38.6189ZM158.413 35.317C159.082 35.317 159.647 35.1352 160.108 34.7715C160.576 34.4014 160.933 33.8852 161.179 33.2228C161.433 32.5605 161.559 31.7845 161.559 30.8949C161.559 30.0053 161.436 29.2326 161.189 28.5767C160.942 27.9209 160.585 27.4144 160.118 27.0572C159.65 26.7001 159.082 26.5215 158.413 26.5215C157.731 26.5215 157.157 26.7066 156.689 27.0767C156.222 27.4469 155.868 27.9598 155.627 28.6157C155.387 29.2715 155.267 30.0313 155.267 30.8949C155.267 31.765 155.387 32.5345 155.627 33.2033C155.874 33.8657 156.228 34.3852 156.689 34.7618C157.157 35.1319 157.731 35.317 158.413 35.317ZM173.055 18.4274L177.078 25.2261H177.234L181.276 18.4274H186.039L179.951 28.4014L186.175 38.3754H181.325L177.234 31.567H177.078L172.987 38.3754H168.156L174.399 28.4014L168.273 18.4274H173.055ZM191.055 38.6287C190.412 38.6287 189.86 38.4014 189.399 37.9469C188.945 37.4858 188.718 36.9339 188.718 36.291C188.718 35.6546 188.945 35.1092 189.399 34.6546C189.86 34.2001 190.412 33.9728 191.055 33.9728C191.679 33.9728 192.224 34.2001 192.692 34.6546C193.159 35.1092 193.393 35.6546 193.393 36.291C193.393 36.7196 193.283 37.1124 193.062 37.4696C192.847 37.8202 192.565 38.1027 192.214 38.317C191.864 38.5248 191.477 38.6287 191.055 38.6287Z" fill="white"/>
</svg>
